<svg width="48" height="48" viewBox="0 0 48 48" fill="none" xmlns="http://www.w3.org/2000/svg">
  <!-- Documento/Página -->
  <rect x="10" y="8" width="28" height="34" rx="2" fill="white" stroke="#FF0000" stroke-width="2"/>
  
  <!-- Líneas de texto (título) -->
  <line x1="14" y1="14" x2="34" y2="14" stroke="#FF0000" stroke-width="2.5" stroke-linecap="round"/>
  <line x1="14" y1="20" x2="30" y2="20" stroke="#FF0000" stroke-width="2" stroke-linecap="round"/>
  
  <!-- Líneas de contenido -->
  <line x1="14" y1="26" x2="34" y2="26" stroke="#CCCCCC" stroke-width="1.5" stroke-linecap="round"/>
  <line x1="14" y1="30" x2="34" y2="30" stroke="#CCCCCC" stroke-width="1.5" stroke-linecap="round"/>
  <line x1="14" y1="34" x2="28" y2="34" stroke="#CCCCCC" stroke-width="1.5" stroke-linecap="round"/>
  
  <!-- Icono de IA/Magia generativa -->
  <circle cx="36" cy="34" r="8" fill="#FF0000"/>
  <path d="M 36 28 L 36.5 32 L 36 36 L 35.5 32 Z" fill="white"/>
  <path d="M 30 34 L 34 34.5 L 38 34 L 34 33.5 Z" fill="white"/>
  <path d="M 32 30 L 34.5 33 L 37 36 L 34.5 33.5 Z" fill="white" opacity="0.7"/>
  <path d="M 40 30 L 37.5 33 L 35 36 L 37 33.5 Z" fill="white" opacity="0.7"/>
</svg>
